<svg width="284" height="122" viewBox="0 0 284 122" fill="none" xmlns="http://www.w3.org/2000/svg">
<path d="M98.3734 82.9581H94.875C94.5335 82.9581 94.2617 82.6863 94.2617 82.3449V39.7369C94.2617 39.3954 94.5335 39.1236 94.875 39.1236H98.3734C98.7149 39.1236 98.9866 39.3954 98.9866 39.7369V44.1691C98.9866 44.7267 99.6696 44.9915 100.053 44.5803C101.691 42.8451 103.628 41.4513 105.851 40.385C108.583 39.0818 111.496 38.4268 114.59 38.4268C118.256 38.4268 121.552 39.2421 124.472 40.8728C127.392 42.5036 129.671 44.7545 131.315 47.6397C132.96 50.5178 133.782 53.7793 133.782 57.417V82.3518C133.782 82.6933 133.511 82.9651 133.169 82.9651H129.713C129.371 82.9651 129.099 82.6933 129.099 82.3518V58.4763C129.099 55.4379 128.493 52.7409 127.287 50.3854C126.075 48.0369 124.374 46.218 122.172 44.9288C119.97 43.6395 117.447 42.9914 114.597 42.9914C111.579 42.9914 108.889 43.751 106.527 45.2702C104.165 46.7895 102.318 48.8941 100.987 51.5841C99.6557 54.2741 98.9936 57.3404 98.9936 60.79V82.3379C98.9936 82.6794 98.7218 82.9511 98.3803 82.9511L98.3734 82.9581Z" fill="#1A237E"/>
<path d="M152.714 77.0755C152.714 77.0755 152.686 77.0476 152.672 77.0337C148.331 72.4412 146.156 67.0821 146.156 60.9494C146.156 57.8831 146.707 54.998 147.808 52.315C148.909 49.625 150.533 47.1789 152.679 44.9837C154.853 42.8372 157.293 41.2065 159.99 40.0915C162.693 38.9765 165.579 38.4189 168.645 38.4189C172.478 38.4189 176.018 39.3319 179.279 41.1508C182.541 42.9696 185.196 45.4715 187.245 48.6493C189.294 51.8271 190.472 55.3604 190.771 59.2421C190.82 59.8623 190.848 60.8937 190.855 62.3293C190.855 62.6708 190.583 62.9495 190.242 62.9495H151.745C151.376 62.9495 151.083 63.2771 151.132 63.6394C151.501 66.3782 152.442 68.8731 153.947 71.1171C155.578 73.5492 157.683 75.4587 160.261 76.8386C162.84 78.2254 165.641 78.9153 168.652 78.9153C172.046 78.9153 175.175 78.0303 178.046 76.2671C180.806 74.5667 182.896 72.3088 184.339 69.4724C184.443 69.2634 184.653 69.1309 184.882 69.1309H188.799C189.238 69.1309 189.545 69.5839 189.37 69.9812C188.255 72.5318 186.743 74.7897 184.834 76.748C182.715 78.9223 180.255 80.5948 177.461 81.7795C174.659 82.9642 171.732 83.5496 168.659 83.5496C162.603 83.5496 157.293 81.3893 152.721 77.0616L152.714 77.0755ZM185.119 58.3431C185.496 58.3431 185.795 58.0016 185.726 57.6322C185.259 55.0119 184.283 52.6355 182.806 50.503C181.189 48.1824 179.147 46.3635 176.673 45.0464C174.199 43.7293 171.523 43.0672 168.645 43.0672C165.767 43.0672 162.972 43.7293 160.436 45.0464C157.892 46.3635 155.801 48.1824 154.164 50.503C152.658 52.6355 151.669 55.0119 151.202 57.6322C151.132 58.0086 151.432 58.35 151.808 58.35H185.119V58.3431Z" fill="#1A237E"/>
<path d="M212.456 82.4906C210.136 81.6613 208.205 80.5045 206.672 79.0062C205.139 77.5148 204.115 75.7865 203.592 73.8283C203.348 72.9293 203.223 71.9676 203.223 70.9362C203.223 70.741 203.237 70.4832 203.257 70.1626C203.278 69.842 203.55 69.5912 203.871 69.5912H206.819C207.174 69.5912 207.453 69.8978 207.432 70.2532C207.425 70.3647 207.418 70.4553 207.418 70.525C207.418 72.2393 208.024 73.7586 209.23 75.0896C210.435 76.4207 212.024 77.4451 213.976 78.1629C215.934 78.8807 217.997 79.2431 220.171 79.2431C222.506 79.2431 224.617 78.8947 226.506 78.2047C228.394 77.5148 229.872 76.5601 230.945 75.3545C232.018 74.1488 232.569 72.7829 232.597 71.2567C232.541 69.1939 231.593 67.5144 229.746 66.2252C227.9 64.9359 224.854 63.8418 220.617 62.9428C218.143 62.455 216.143 62.009 214.61 61.5978C213.077 61.1867 211.599 60.6988 210.192 60.1343C207.857 59.1308 206.115 57.8625 204.979 56.3224C203.334 54.1132 202.874 51.2699 203.599 47.7924C203.606 47.7576 203.62 47.7157 203.634 47.6809C204.944 44.1407 207.571 41.5413 211.502 39.8827C214.08 38.7955 216.972 38.252 220.178 38.252C223.384 38.252 226.408 38.8025 229.001 39.9036C231.593 41.0047 233.621 42.5309 235.071 44.4891C236.52 46.4474 237.252 48.6426 237.252 51.0887C237.252 51.2629 237.238 51.5068 237.217 51.8204C237.196 52.134 236.924 52.3919 236.604 52.3919H232.973C233.001 52.2037 233.015 51.918 233.015 51.5347C233.015 49.9597 232.45 48.4963 231.321 47.1513C230.192 45.8063 228.652 44.74 226.694 43.9525C224.736 43.165 222.568 42.7678 220.178 42.7678C217.788 42.7678 215.732 43.1163 213.843 43.8062C211.955 44.4961 210.477 45.4578 209.404 46.6774C208.331 47.8969 207.794 49.2698 207.794 50.796C207.794 51.5556 207.962 52.2664 208.303 52.9355C208.644 53.5975 209.125 54.148 209.753 54.5871C210.324 54.9913 211.327 55.4721 212.77 56.0157C213.99 56.5035 215.077 56.8799 216.032 57.1377C216.979 57.3956 218.652 57.7998 221.042 58.3433C224.896 59.1587 227.997 60.1274 230.332 61.2563C232.666 62.3853 234.388 63.7582 235.489 65.368C237.001 67.5911 237.475 70.4483 236.903 73.9398C236.903 73.9816 236.883 74.0234 236.869 74.0652C235.586 77.7587 232.931 80.4418 228.903 82.1143C226.325 83.1875 223.419 83.7241 220.185 83.7241C217.363 83.7241 214.784 83.313 212.463 82.4837L212.456 82.4906Z" fill="#1A237E"/>
<path d="M258.859 82.4906C256.538 81.6613 254.608 80.5045 253.075 79.0062C251.541 77.5148 250.517 75.7865 249.994 73.8283C249.75 72.9293 249.625 71.9676 249.625 70.9362C249.625 70.741 249.639 70.4832 249.66 70.1626C249.681 69.842 249.953 69.5912 250.273 69.5912H253.221C253.576 69.5912 253.855 69.8978 253.834 70.2532C253.827 70.3647 253.82 70.4553 253.82 70.525C253.82 72.2393 254.427 73.7586 255.632 75.0896C256.838 76.4207 258.427 77.4451 260.378 78.1629C262.336 78.8807 264.399 79.2431 266.573 79.2431C268.908 79.2431 271.02 78.8947 272.908 78.2047C274.797 77.5148 276.274 76.5601 277.347 75.3545C278.421 74.1488 278.971 72.7829 278.999 71.2567C278.943 69.1939 277.995 67.5144 276.149 66.2252C274.302 64.9359 271.257 63.8418 267.019 62.9428C264.545 62.455 262.545 62.009 261.012 61.5978C259.479 61.1867 258.002 60.6988 256.594 60.1343C254.259 59.1308 252.517 57.8625 251.381 56.3224C249.737 54.1132 249.277 51.2699 250.001 47.7924C250.008 47.7576 250.022 47.7157 250.036 47.6809C251.346 44.1407 253.974 41.5413 257.904 39.8827C260.483 38.7955 263.375 38.252 266.58 38.252C269.786 38.252 272.811 38.8025 275.403 39.9036C277.995 41.0047 280.023 42.5309 281.473 44.4891C282.922 46.4474 283.654 48.6426 283.654 51.0887C283.654 51.2629 283.64 51.5068 283.619 51.8204C283.598 52.134 283.327 52.3919 283.006 52.3919H279.375C279.403 52.2037 279.417 51.918 279.417 51.5347C279.417 49.9597 278.853 48.4963 277.724 47.1513C276.595 45.8063 275.055 44.74 273.096 43.9525C271.138 43.165 268.971 42.7678 266.58 42.7678C264.19 42.7678 262.134 43.1163 260.246 43.8062C258.357 44.4961 256.88 45.4578 255.806 46.6774C254.733 47.8969 254.197 49.2698 254.197 50.796C254.197 51.5556 254.364 52.2664 254.705 52.9355C255.047 53.5975 255.528 54.148 256.155 54.5871C256.726 54.9913 257.73 55.4721 259.172 56.0157C260.392 56.5035 261.479 56.8799 262.434 57.1377C263.382 57.3956 265.054 57.7998 267.445 58.3433C271.298 59.1587 274.4 60.1274 276.734 61.2563C279.069 62.3853 280.79 63.7582 281.891 65.368C283.403 67.5911 283.877 70.4483 283.306 73.9398C283.306 73.9816 283.285 74.0234 283.271 74.0652C281.989 77.7587 279.333 80.4418 275.305 82.1143C272.727 83.1875 269.821 83.7241 266.587 83.7241C263.765 83.7241 261.186 83.313 258.866 82.4837L258.859 82.4906Z" fill="#1A237E"/>
<path d="M44.4367 77.0755C44.4367 77.0755 44.4088 77.0476 44.3948 77.0337C40.0532 72.4412 37.8789 67.0821 37.8789 60.9494C37.8789 57.8831 38.4294 54.998 39.5305 52.315C40.6316 49.625 42.2554 47.1789 44.4018 44.9837C46.5761 42.8372 49.0152 41.2065 51.7122 40.0915C54.4161 38.9765 57.3013 38.4189 60.3676 38.4189C63.629 38.4189 66.7093 39.0671 69.6153 40.3563C72.5214 41.6456 75.0441 43.4714 77.1766 45.8339C79.1209 47.9873 80.5914 50.4473 81.6019 53.207C81.7482 53.6042 81.4416 54.0223 81.0165 54.0223H77.1487C76.9048 54.0223 76.6888 53.876 76.5912 53.653C75.7062 51.6041 74.4796 49.7992 72.9186 48.2381C71.26 46.5795 69.3505 45.3042 67.1971 44.4052C65.0368 43.5063 62.7649 43.0602 60.3746 43.0602C57.0852 43.0602 54.0956 43.8477 51.3916 45.4227C48.6877 46.9977 46.5552 49.1511 44.9942 51.8829C43.4331 54.6147 42.6526 57.6322 42.6526 60.9494C42.6526 64.2666 43.4331 67.2912 44.9942 70.0369C46.5552 72.7827 48.6947 74.943 51.4125 76.5389C54.1304 78.1278 57.1201 78.9223 60.3746 78.9223C62.7649 78.9223 65.0368 78.4763 67.1971 77.5773C69.3575 76.6783 71.267 75.403 72.9186 73.7444C74.4796 72.1833 75.7062 70.3923 76.5912 68.3713C76.6888 68.1483 76.9048 68.002 77.1487 68.002H81.0165C81.4416 68.002 81.7413 68.4201 81.5949 68.8173C80.5844 71.5561 79.114 73.9953 77.1766 76.1486C75.0441 78.5111 72.5283 80.337 69.6153 81.6262C66.7093 82.9155 63.629 83.5636 60.3676 83.5636C54.3116 83.5636 49.0013 81.4032 44.4297 77.0755H44.4367Z" fill="#1A237E"/>
<path d="M60.2961 73.4038C67.1432 73.4038 72.6938 67.8532 72.6938 61.0061C72.6938 54.159 67.1432 48.6084 60.2961 48.6084C53.4491 48.6084 47.8984 54.159 47.8984 61.0061C47.8984 67.8532 53.4491 73.4038 60.2961 73.4038Z" fill="#FFCC00"/>
<path d="M74.547 86.8754L71.4582 88.4269C71.1555 88.5789 71.0334 88.9475 71.1854 89.2502L84.6796 116.115C84.8317 116.418 85.2003 116.54 85.5029 116.388L88.5917 114.837C88.8944 114.685 89.0165 114.316 88.8645 114.013L75.3703 87.1481C75.2183 86.8455 74.8497 86.7234 74.547 86.8754Z" fill="#1A237E"/>
<path d="M53.8674 90.9919L50.5214 120.869C50.4837 121.206 50.726 121.509 51.0626 121.547L54.4977 121.931C54.8343 121.969 55.1377 121.727 55.1754 121.39L58.5214 91.5132C58.5591 91.1766 58.3168 90.8731 57.9802 90.8354L54.5451 90.4507C54.2085 90.413 53.905 90.6554 53.8674 90.9919Z" fill="#1A237E"/>
<path d="M38.3752 82.9914L19.2725 106.206C19.0573 106.468 19.0948 106.854 19.3564 107.069L22.0255 109.266C22.287 109.481 22.6735 109.443 22.8887 109.182L41.9914 85.9671C42.2066 85.7056 42.1691 85.3191 41.9075 85.1039L39.2384 82.9075C38.9769 82.6923 38.5904 82.7299 38.3752 82.9914Z" fill="#1A237E"/>
<path d="M29.7667 67.8496L1.09273 76.885C0.769687 76.9868 0.59033 77.3312 0.692122 77.6542L1.73096 80.951C1.83275 81.2741 2.17714 81.4534 2.50018 81.3516L31.1742 72.3162C31.4972 72.2145 31.6766 71.8701 31.5748 71.547L30.536 68.2502C30.4342 67.9272 30.0898 67.7479 29.7667 67.8496Z" fill="#1A237E"/>
<path d="M1.09241 42.8238L0.16461 46.1535C0.0736985 46.4798 0.264493 46.818 0.59076 46.9089L29.5514 54.9785C29.8777 55.0694 30.2159 54.8786 30.3068 54.5523L31.2346 51.2226C31.3255 50.8963 31.1347 50.5581 30.8084 50.4672L1.84778 42.3976C1.52151 42.3067 1.18332 42.4975 1.09241 42.8238Z" fill="#1A237E"/>
<path d="M20.4332 13.8414L17.8391 16.1259C17.585 16.3498 17.5604 16.7373 17.7842 16.9915L37.654 39.5531C37.8779 39.8073 38.2654 39.8319 38.5196 39.6081L41.1136 37.3235C41.3678 37.0997 41.3923 36.7122 41.1685 36.458L21.2987 13.8963C21.0748 13.6421 20.6873 13.6176 20.4332 13.8414Z" fill="#1A237E"/>
<path d="M52.449 0.088547L49.0287 0.588123C48.6936 0.637074 48.4616 0.948443 48.5105 1.28358L52.8556 31.0318C52.9046 31.367 53.2159 31.599 53.5511 31.55L56.9714 31.0504C57.3065 31.0015 57.5385 30.6901 57.4896 30.355L53.1445 0.606738C53.0955 0.271598 52.7841 0.0395956 52.449 0.088547Z" fill="#1A237E"/>
<path d="M82.8199 4.90051L70.2333 32.2028C70.0915 32.5104 70.2259 32.8747 70.5335 33.0165L73.6726 34.4636C73.9801 34.6054 74.3444 34.471 74.4862 34.1635L87.0728 6.86114C87.2146 6.55355 87.0802 6.18926 86.7726 6.04746L83.6335 4.60033C83.3259 4.45853 82.9617 4.59292 82.8199 4.90051Z" fill="#1A237E"/>
</svg>
