<svg width="484" height="208" viewBox="0 0 484 208" fill="none" xmlns="http://www.w3.org/2000/svg">
<path d="M167.718 141.437H161.754C161.172 141.437 160.708 140.974 160.708 140.392V67.7485C160.708 67.1663 161.172 66.7029 161.754 66.7029H167.718C168.3 66.7029 168.764 67.1663 168.764 67.7485V75.3051C168.764 76.2556 169.928 76.7071 170.582 76.0061C173.374 73.0476 176.677 70.6713 180.467 68.8535C185.125 66.6316 190.091 65.5148 195.366 65.5148C201.616 65.5148 207.236 66.9049 212.214 69.6852C217.193 72.4654 221.078 76.3031 223.882 81.222C226.686 86.1291 228.088 91.6896 228.088 97.8917V140.404C228.088 140.986 227.625 141.449 227.042 141.449H221.149C220.567 141.449 220.104 140.986 220.104 140.404V99.6977C220.104 94.5174 219.07 89.9193 217.014 85.9033C214.947 81.8993 212.048 78.7982 208.293 76.6002C204.539 74.4021 200.238 73.2971 195.378 73.2971C190.234 73.2971 185.647 74.5922 181.62 77.1824C177.592 79.7725 174.443 83.3607 172.174 87.9469C169.904 92.5332 168.776 97.761 168.776 103.642V140.38C168.776 140.962 168.312 141.425 167.73 141.425L167.718 141.437Z" fill="white"/>
<path d="M260.365 131.408C260.365 131.408 260.318 131.36 260.294 131.337C252.892 123.507 249.185 114.37 249.185 103.914C249.185 98.6863 250.124 93.7674 252.001 89.1931C253.878 84.6068 256.647 80.4364 260.306 76.6938C264.013 73.0343 268.172 70.254 272.77 68.353C277.38 66.452 282.299 65.5015 287.526 65.5015C294.061 65.5015 300.097 67.0579 305.658 70.159C311.218 73.26 315.745 77.5255 319.238 82.9434C322.731 88.3614 324.739 94.3853 325.25 101.003C325.333 102.061 325.381 103.819 325.393 106.267C325.393 106.849 324.929 107.324 324.347 107.324H258.714C258.084 107.324 257.585 107.883 257.668 108.5C258.298 113.17 259.902 117.423 262.469 121.249C265.249 125.396 268.837 128.651 273.233 131.004C277.629 133.368 282.406 134.545 287.538 134.545C293.325 134.545 298.659 133.036 303.555 130.03C308.26 127.131 311.824 123.281 314.283 118.445C314.462 118.089 314.818 117.863 315.21 117.863H321.888C322.636 117.863 323.159 118.635 322.862 119.313C320.961 123.661 318.383 127.511 315.127 130.849C311.515 134.556 307.321 137.408 302.557 139.428C297.78 141.448 292.79 142.446 287.55 142.446C277.225 142.446 268.172 138.762 260.377 131.384L260.365 131.408ZM315.614 99.4705C316.256 99.4705 316.767 98.8883 316.648 98.2586C315.852 93.7912 314.188 89.7396 311.67 86.1039C308.913 82.1474 305.432 79.0463 301.214 76.8007C296.996 74.5551 292.434 73.4264 287.526 73.4264C282.619 73.4264 277.855 74.5551 273.53 76.8007C269.193 79.0463 265.629 82.1474 262.837 86.1039C260.27 89.7396 258.583 93.7912 257.787 98.2586C257.668 98.9002 258.179 99.4824 258.821 99.4824H315.614V99.4705Z" fill="white"/>
<path d="M362.221 140.64C358.265 139.226 354.973 137.254 352.36 134.699C349.746 132.157 347.999 129.21 347.108 125.872C346.692 124.339 346.478 122.699 346.478 120.941C346.478 120.608 346.502 120.168 346.538 119.622C346.573 119.075 347.037 118.648 347.583 118.648H352.609C353.215 118.648 353.69 119.17 353.655 119.776C353.643 119.966 353.631 120.121 353.631 120.24C353.631 123.163 354.665 125.753 356.72 128.022C358.776 130.291 361.485 132.038 364.811 133.262C368.15 134.486 371.667 135.103 375.374 135.103C379.354 135.103 382.954 134.509 386.174 133.333C389.394 132.157 391.913 130.529 393.743 128.474C395.572 126.418 396.511 124.089 396.559 121.487C396.464 117.97 394.848 115.107 391.699 112.909C388.55 110.711 383.358 108.845 376.134 107.313C371.916 106.481 368.506 105.721 365.893 105.02C363.279 104.319 360.76 103.487 358.36 102.525C354.379 100.814 351.409 98.6512 349.472 96.0254C346.668 92.259 345.884 87.4113 347.12 81.4825C347.132 81.4231 347.156 81.3518 347.179 81.2924C349.413 75.2566 353.892 70.8248 360.593 67.9971C364.99 66.1435 369.92 65.2168 375.386 65.2168C380.851 65.2168 386.008 66.1554 390.428 68.0327C394.848 69.91 398.305 72.512 400.776 75.8507C403.248 79.1894 404.495 82.932 404.495 87.1024C404.495 87.3995 404.472 87.8153 404.436 88.35C404.4 88.8846 403.937 89.3243 403.39 89.3243H397.2C397.248 89.0035 397.271 88.5163 397.271 87.8628C397.271 85.1776 396.309 82.6825 394.384 80.3894C392.459 78.0963 389.834 76.2784 386.495 74.9358C383.156 73.5932 379.461 72.916 375.386 72.916C371.31 72.916 367.805 73.51 364.586 74.6863C361.366 75.8626 358.847 77.5022 357.017 79.5815C355.187 81.6607 354.272 84.0014 354.272 86.6034C354.272 87.8985 354.558 89.1104 355.14 90.251C355.722 91.3797 356.542 92.3184 357.611 93.0669C358.585 93.756 360.296 94.5759 362.756 95.5026C364.835 96.3343 366.689 96.9759 368.316 97.4155C369.932 97.8551 372.784 98.5443 376.859 99.471C383.43 100.861 388.717 102.513 392.697 104.437C396.677 106.362 399.612 108.703 401.489 111.448C404.068 115.238 404.876 120.109 403.901 126.062C403.901 126.133 403.866 126.204 403.842 126.276C401.656 132.573 397.129 137.147 390.261 139.999C385.865 141.828 380.911 142.743 375.398 142.743C370.586 142.743 366.19 142.042 362.233 140.628L362.221 140.64Z" fill="white"/>
<path d="M441.333 140.64C437.377 139.226 434.086 137.254 431.472 134.699C428.858 132.157 427.111 129.21 426.22 125.872C425.804 124.339 425.591 122.699 425.591 120.941C425.591 120.608 425.614 120.168 425.65 119.622C425.686 119.075 426.149 118.648 426.696 118.648H431.721C432.327 118.648 432.803 119.17 432.767 119.776C432.755 119.966 432.743 120.121 432.743 120.24C432.743 123.163 433.777 125.753 435.832 128.022C437.888 130.291 440.597 132.038 443.924 133.262C447.262 134.486 450.779 135.103 454.486 135.103C458.467 135.103 462.067 134.509 465.286 133.333C468.506 132.157 471.025 130.529 472.855 128.474C474.685 126.418 475.623 124.089 475.671 121.487C475.576 117.97 473.96 115.107 470.811 112.909C467.663 110.711 462.471 108.845 455.247 107.313C451.029 106.481 447.619 105.721 445.005 105.02C442.391 104.319 439.872 103.487 437.472 102.525C433.492 100.814 430.521 98.6512 428.585 96.0254C425.781 92.259 424.997 87.4113 426.232 81.4825C426.244 81.4231 426.268 81.3518 426.292 81.2924C428.525 75.2566 433.005 70.8248 439.706 67.9971C444.102 66.1435 449.033 65.2168 454.498 65.2168C459.964 65.2168 465.12 66.1554 469.54 68.0327C473.96 69.91 477.417 72.512 479.889 75.8507C482.36 79.1894 483.608 82.932 483.608 87.1024C483.608 87.3995 483.584 87.8153 483.548 88.35C483.513 88.8846 483.049 89.3243 482.503 89.3243H476.312C476.36 89.0035 476.384 88.5163 476.384 87.8628C476.384 85.1776 475.421 82.6825 473.497 80.3894C471.572 78.0963 468.946 76.2784 465.607 74.9358C462.269 73.5932 458.573 72.916 454.498 72.916C450.423 72.916 446.918 73.51 443.698 74.6863C440.478 75.8626 437.959 77.5022 436.129 79.5815C434.3 81.6607 433.385 84.0014 433.385 86.6034C433.385 87.8985 433.67 89.1104 434.252 90.251C434.834 91.3797 435.654 92.3184 436.723 93.0669C437.698 93.756 439.409 94.5759 441.868 95.5026C443.947 96.3343 445.801 96.9759 447.429 97.4155C449.045 97.8551 451.896 98.5443 455.971 99.471C462.542 100.861 467.829 102.513 471.809 104.437C475.79 106.362 478.724 108.703 480.602 111.448C483.18 115.238 483.988 120.109 483.014 126.062C483.014 126.133 482.978 126.204 482.954 126.276C480.768 132.573 476.241 137.147 469.374 139.999C464.978 141.828 460.023 142.743 454.51 142.743C449.698 142.743 445.302 142.042 441.345 140.628L441.333 140.64Z" fill="white"/>
<path d="M75.7603 131.408C75.7603 131.408 75.7128 131.36 75.689 131.337C68.2868 123.507 64.5798 114.37 64.5798 103.914C64.5798 98.6863 65.5185 93.7674 67.3957 89.1931C69.273 84.6068 72.0414 80.4364 75.7009 76.6938C79.4079 73.0343 83.5664 70.254 88.1645 68.353C92.7745 66.452 97.6934 65.5015 102.921 65.5015C108.482 65.5015 113.733 66.6064 118.688 68.8045C123.643 71.0026 127.944 74.1155 131.579 78.1433C134.894 81.8147 137.401 86.0088 139.124 90.7139C139.374 91.3911 138.851 92.104 138.126 92.104H131.532C131.116 92.104 130.748 91.8545 130.581 91.4743C129.072 87.9812 126.981 84.9039 124.32 82.2424C121.492 79.4146 118.236 77.2403 114.565 75.7076C110.882 74.1749 107.008 73.4145 102.933 73.4145C97.3251 73.4145 92.228 74.7571 87.618 77.4423C83.008 80.1275 79.3722 83.7989 76.7108 88.4564C74.0493 93.1139 72.7186 98.2586 72.7186 103.914C72.7186 109.57 74.0493 114.726 76.7108 119.408C79.3722 124.089 83.0198 127.772 87.6536 130.493C92.2874 133.202 97.3845 134.556 102.933 134.556C107.008 134.556 110.882 133.796 114.565 132.263C118.248 130.731 121.504 128.556 124.32 125.729C126.981 123.067 129.072 120.014 130.581 116.568C130.748 116.188 131.116 115.938 131.532 115.938H138.126C138.851 115.938 139.362 116.651 139.112 117.328C137.389 121.998 134.882 126.156 131.579 129.828C127.944 133.855 123.654 136.968 118.688 139.166C113.733 141.364 108.482 142.469 102.921 142.469C92.5963 142.469 83.5426 138.786 75.7484 131.408H75.7603Z" fill="white"/>
<path d="M102.8 125.148C114.474 125.148 123.938 115.684 123.938 104.011C123.938 92.3371 114.474 82.8737 102.8 82.8737C91.1267 82.8737 81.6633 92.3371 81.6633 104.011C81.6633 115.684 91.1267 125.148 102.8 125.148Z" fill="#FFCC00"/>
<path d="M127.097 148.116L121.83 150.761C121.314 151.02 121.106 151.649 121.365 152.165L144.372 197.968C144.631 198.484 145.259 198.692 145.776 198.433L151.042 195.788C151.558 195.529 151.766 194.9 151.507 194.384L128.5 148.581C128.241 148.065 127.613 147.857 127.097 148.116Z" fill="white"/>
<path d="M91.8395 155.134L86.1349 206.072C86.0707 206.646 86.4838 207.164 87.0576 207.228L92.9142 207.884C93.4881 207.948 94.0054 207.535 94.0696 206.961L99.7743 156.023C99.8385 155.449 99.4254 154.932 98.8516 154.867L92.995 154.212C92.4211 154.147 91.9038 154.56 91.8395 155.134Z" fill="white"/>
<path d="M65.4271 141.494L32.8585 181.073C32.4915 181.519 32.5556 182.178 33.0014 182.545L37.5521 186.29C37.998 186.656 38.6569 186.592 39.0238 186.147L71.5924 146.567C71.9594 146.121 71.8953 145.462 71.4494 145.096L66.8988 141.351C66.4529 140.984 65.794 141.048 65.4271 141.494Z" fill="white"/>
<path d="M50.7506 115.678L1.86369 131.083C1.31293 131.257 1.00714 131.844 1.18069 132.395L2.95183 138.015C3.12537 138.566 3.71253 138.872 4.26329 138.698L53.1502 123.294C53.701 123.12 54.0068 122.533 53.8332 121.982L52.0621 116.361C51.8885 115.811 51.3014 115.505 50.7506 115.678Z" fill="white"/>
<path d="M1.86247 73.0113L0.280647 78.6882C0.12565 79.2445 0.450939 79.8211 1.0072 79.9761L50.3828 93.7341C50.9391 93.8891 51.5157 93.5638 51.6706 93.0076L53.2525 87.3306C53.4075 86.7744 53.0822 86.1978 52.5259 86.0428L3.15032 72.2847C2.59406 72.1298 2.01747 72.455 1.86247 73.0113Z" fill="white"/>
<path d="M34.8366 23.5987L30.414 27.4937C29.9807 27.8753 29.9388 28.536 30.3204 28.9693L64.1969 67.4352C64.5785 67.8686 65.2392 67.9105 65.6726 67.5288L70.0951 63.6339C70.5285 63.2522 70.5704 62.5916 70.1888 62.1582L36.3123 23.6923C35.9307 23.259 35.27 23.2171 34.8366 23.5987Z" fill="white"/>
<path d="M89.4216 0.151078L83.5903 1.00282C83.0189 1.08627 82.6233 1.61713 82.7068 2.18852L90.1148 52.9069C90.1983 53.4783 90.7292 53.8738 91.3005 53.7904L97.1319 52.9386C97.7033 52.8552 98.0988 52.3243 98.0153 51.7529L90.6073 1.03455C90.5238 0.463165 89.993 0.0676197 89.4216 0.151078Z" fill="white"/>
<path d="M141.201 8.3552L119.742 54.9035C119.5 55.4279 119.729 56.049 120.254 56.2908L125.606 58.758C126.13 58.9998 126.751 58.7706 126.993 58.2462L148.452 11.6979C148.694 11.1735 148.465 10.5524 147.94 10.3107L142.588 7.84342C142.064 7.60167 141.443 7.83079 141.201 8.3552Z" fill="white"/>
</svg>
