<svg width="470" height="202" viewBox="0 0 470 202" fill="none" xmlns="http://www.w3.org/2000/svg">
<path d="M162.876 137.359H157.084C156.518 137.359 156.068 136.909 156.068 136.343V65.7943C156.068 65.2289 156.518 64.7789 157.084 64.7789H162.876C163.442 64.7789 163.892 65.2289 163.892 65.7943V73.1331C163.892 74.0562 165.023 74.4947 165.657 73.8139C168.369 70.9407 171.577 68.6329 175.258 66.8674C179.781 64.7097 184.604 63.625 189.727 63.625C195.797 63.625 201.255 64.9751 206.09 67.6752C210.924 70.3753 214.698 74.1024 217.421 78.8795C220.144 83.6451 221.506 89.0453 221.506 95.0686V136.355C221.506 136.92 221.056 137.37 220.49 137.37H214.767C214.202 137.37 213.751 136.92 213.751 136.355V96.8225C213.751 91.7915 212.748 87.326 210.751 83.4258C208.744 79.5372 205.928 76.5255 202.282 74.3908C198.635 72.2561 194.458 71.183 189.739 71.183C184.743 71.183 180.289 72.4408 176.377 74.9562C172.465 77.4717 169.407 80.9565 167.203 85.4105C164.999 89.8645 163.903 94.9417 163.903 100.653V136.332C163.903 136.897 163.453 137.347 162.888 137.347L162.876 137.359Z" fill="#1A237E"/>
<path d="M252.86 127.62C252.86 127.62 252.814 127.574 252.791 127.551C245.602 119.946 242.002 111.073 242.002 100.919C242.002 95.8415 242.914 91.0644 244.737 86.6219C246.56 82.1679 249.248 78.1177 252.802 74.483C256.403 70.929 260.441 68.2289 264.907 66.3826C269.384 64.5364 274.161 63.6133 279.238 63.6133C285.584 63.6133 291.446 65.1249 296.846 68.1365C302.247 71.1482 306.643 75.2907 310.036 80.5524C313.428 85.8142 315.378 91.6644 315.874 98.0916C315.955 99.1186 316.001 100.826 316.013 103.203C316.013 103.769 315.563 104.23 314.997 104.23H251.256C250.645 104.23 250.16 104.773 250.241 105.373C250.852 109.907 252.41 114.038 254.902 117.754C257.603 121.781 261.087 124.943 265.357 127.227C269.626 129.524 274.265 130.666 279.25 130.666C284.869 130.666 290.05 129.201 294.804 126.281C299.374 123.466 302.835 119.727 305.224 115.031C305.397 114.685 305.743 114.465 306.124 114.465H312.609C313.336 114.465 313.843 115.215 313.555 115.873C311.709 120.096 309.205 123.835 306.043 127.077C302.535 130.678 298.462 133.447 293.835 135.409C289.196 137.37 284.35 138.339 279.261 138.339C269.234 138.339 260.441 134.762 252.872 127.597L252.86 127.62ZM306.516 96.6031C307.139 96.6031 307.635 96.0377 307.52 95.4261C306.747 91.0875 305.131 87.1527 302.685 83.6218C300.008 79.7793 296.627 76.7677 292.531 74.5868C288.435 72.406 284.004 71.3097 279.238 71.3097C274.473 71.3097 269.845 72.406 265.645 74.5868C261.434 76.7677 257.972 79.7793 255.26 83.6218C252.768 87.1527 251.129 91.0875 250.356 95.4261C250.241 96.0492 250.737 96.6146 251.36 96.6146H306.516V96.6031Z" fill="#1A237E"/>
<path d="M351.783 136.585C347.941 135.212 344.744 133.297 342.206 130.816C339.667 128.346 337.971 125.485 337.106 122.242C336.702 120.754 336.494 119.161 336.494 117.454C336.494 117.13 336.517 116.704 336.552 116.173C336.586 115.642 337.036 115.227 337.567 115.227H342.448C343.037 115.227 343.498 115.734 343.464 116.323C343.452 116.507 343.441 116.657 343.441 116.773C343.441 119.611 344.444 122.127 346.441 124.331C348.437 126.535 351.068 128.231 354.299 129.419C357.541 130.608 360.957 131.208 364.557 131.208C368.422 131.208 371.919 130.631 375.046 129.489C378.173 128.346 380.619 126.765 382.396 124.769C384.173 122.773 385.085 120.511 385.131 117.984C385.038 114.569 383.469 111.788 380.411 109.653C377.354 107.519 372.311 105.707 365.295 104.218C361.199 103.411 357.887 102.672 355.349 101.991C352.81 101.311 350.364 100.503 348.033 99.5682C344.168 97.9066 341.283 95.8065 339.402 93.2564C336.679 89.5986 335.917 84.8907 337.117 79.1327C337.129 79.075 337.152 79.0058 337.175 78.9481C339.344 73.0863 343.694 68.7823 350.202 66.036C354.472 64.236 359.26 63.3359 364.568 63.3359C369.876 63.3359 374.884 64.2475 379.177 66.0707C383.469 67.8938 386.827 70.4208 389.227 73.6633C391.627 76.9057 392.839 80.5405 392.839 84.5907C392.839 84.8791 392.816 85.283 392.781 85.8022C392.746 86.3215 392.296 86.7484 391.766 86.7484H385.754C385.8 86.4369 385.823 85.9638 385.823 85.3291C385.823 82.7213 384.888 80.2982 383.019 78.0712C381.15 75.8441 378.6 74.0787 375.357 72.7748C372.115 71.4709 368.526 70.8132 364.568 70.8132C360.61 70.8132 357.207 71.3901 354.079 72.5325C350.952 73.6748 348.506 75.2672 346.729 77.2865C344.952 79.3058 344.064 81.579 344.064 84.106C344.064 85.3638 344.341 86.5407 344.906 87.6485C345.471 88.7447 346.268 89.6562 347.306 90.3832C348.252 91.0525 349.914 91.8486 352.302 92.7487C354.322 93.5564 356.122 94.1795 357.703 94.6065C359.272 95.0334 362.041 95.7026 365.999 96.6027C372.38 97.9527 377.515 99.5567 381.381 101.426C385.246 103.295 388.096 105.568 389.919 108.234C392.423 111.915 393.208 116.646 392.262 122.427C392.262 122.496 392.227 122.565 392.204 122.635C390.081 128.75 385.685 133.193 379.015 135.962C374.746 137.739 369.934 138.627 364.58 138.627C359.907 138.627 355.637 137.947 351.795 136.574L351.783 136.585Z" fill="#1A237E"/>
<path d="M428.611 136.585C424.769 135.212 421.573 133.297 419.034 130.816C416.495 128.346 414.799 125.485 413.934 122.242C413.53 120.754 413.322 119.161 413.322 117.454C413.322 117.13 413.345 116.704 413.38 116.173C413.415 115.642 413.865 115.227 414.395 115.227H419.276C419.865 115.227 420.326 115.734 420.292 116.323C420.28 116.507 420.269 116.657 420.269 116.773C420.269 119.611 421.273 122.127 423.269 124.331C425.265 126.535 427.896 128.231 431.127 129.419C434.369 130.608 437.785 131.208 441.385 131.208C445.251 131.208 448.747 130.631 451.874 129.489C455.001 128.346 457.447 126.765 459.224 124.769C461.001 122.773 461.913 120.511 461.959 117.984C461.867 114.569 460.297 111.788 457.239 109.653C454.182 107.519 449.139 105.707 442.123 104.218C438.027 103.411 434.715 102.672 432.177 101.991C429.638 101.311 427.192 100.503 424.861 99.5682C420.996 97.9066 418.111 95.8065 416.23 93.2564C413.507 89.5986 412.745 84.8907 413.945 79.1327C413.957 79.075 413.98 79.0058 414.003 78.9481C416.172 73.0863 420.523 68.7823 427.031 66.036C431.3 64.236 436.089 63.3359 441.397 63.3359C446.704 63.3359 451.712 64.2475 456.005 66.0707C460.297 67.8938 463.655 70.4208 466.055 73.6633C468.455 76.9057 469.667 80.5405 469.667 84.5907C469.667 84.8791 469.644 85.283 469.609 85.8022C469.575 86.3215 469.125 86.7484 468.594 86.7484H462.582C462.628 86.4369 462.651 85.9638 462.651 85.3291C462.651 82.7213 461.717 80.2982 459.847 78.0712C457.978 75.8441 455.428 74.0787 452.185 72.7748C448.943 71.4709 445.354 70.8132 441.397 70.8132C437.439 70.8132 434.035 71.3901 430.908 72.5325C427.781 73.6748 425.334 75.2672 423.557 77.2865C421.78 79.3058 420.892 81.579 420.892 84.106C420.892 85.3638 421.169 86.5407 421.734 87.6485C422.3 88.7447 423.096 89.6562 424.134 90.3832C425.08 91.0525 426.742 91.8486 429.131 92.7487C431.15 93.5564 432.95 94.1795 434.531 94.6065C436.1 95.0334 438.869 95.7026 442.827 96.6027C449.208 97.9527 454.343 99.5567 458.209 101.426C462.074 103.295 464.924 105.568 466.748 108.234C469.252 111.915 470.036 116.646 469.09 122.427C469.09 122.496 469.055 122.565 469.032 122.635C466.909 128.75 462.513 133.193 455.843 135.962C451.574 137.739 446.762 138.627 441.408 138.627C436.735 138.627 432.465 137.947 428.623 136.574L428.611 136.585Z" fill="#1A237E"/>
<path d="M73.5671 127.62C73.5671 127.62 73.521 127.574 73.4979 127.551C66.3091 119.946 62.709 111.073 62.709 100.919C62.709 95.8415 63.6206 91.0644 65.4437 86.6219C67.2669 82.1679 69.9554 78.1177 73.5094 74.483C77.1096 70.929 81.1482 68.2289 85.6138 66.3826C90.0909 64.5364 94.868 63.6133 99.9451 63.6133C105.345 63.6133 110.446 64.6864 115.257 66.8211C120.069 68.9558 124.246 71.979 127.777 75.8907C130.996 79.4562 133.431 83.5295 135.104 88.0989C135.347 88.7566 134.839 89.449 134.135 89.449H127.731C127.327 89.449 126.969 89.2066 126.808 88.8374C125.342 85.4449 123.311 82.4564 120.727 79.8716C117.98 77.1254 114.819 75.0137 111.253 73.5252C107.676 72.0367 103.915 71.2982 99.9567 71.2982C94.5103 71.2982 89.5601 72.6021 85.083 75.2099C80.6059 77.8177 77.075 81.3832 74.4902 85.9065C71.9055 90.4298 70.6132 95.4261 70.6132 100.919C70.6132 106.411 71.9055 111.419 74.4902 115.965C77.075 120.512 80.6174 124.089 85.1176 126.731C89.6178 129.362 94.568 130.678 99.9567 130.678C103.915 130.678 107.676 129.939 111.253 128.451C114.83 126.962 117.992 124.85 120.727 122.104C123.311 119.519 125.342 116.554 126.808 113.208C126.969 112.838 127.327 112.596 127.731 112.596H134.135C134.839 112.596 135.335 113.288 135.093 113.946C133.42 118.481 130.985 122.52 127.777 126.085C124.246 129.997 120.081 133.02 115.257 135.155C110.446 137.289 105.345 138.362 99.9451 138.362C89.9178 138.362 81.1251 134.785 73.5556 127.62H73.5671Z" fill="#1A237E"/>
<path d="M99.8442 121.54C111.181 121.54 120.372 112.349 120.372 101.012C120.372 89.675 111.181 80.4844 99.8442 80.4844C88.507 80.4844 79.3164 89.675 79.3164 101.012C79.3164 112.349 88.507 121.54 99.8442 121.54Z" fill="#FFCC00"/>
<path d="M123.44 143.842L118.325 146.411C117.824 146.663 117.622 147.273 117.874 147.775L140.217 192.257C140.469 192.759 141.079 192.961 141.58 192.709L146.695 190.14C147.196 189.888 147.398 189.278 147.146 188.777L124.803 144.294C124.551 143.793 123.941 143.591 123.44 143.842Z" fill="#1A237E"/>
<path d="M89.1883 150.66L83.6482 200.13C83.5858 200.687 83.987 201.189 84.5443 201.252L90.232 201.889C90.7894 201.951 91.2917 201.55 91.3542 200.993L96.8943 151.523C96.9567 150.966 96.5556 150.463 95.9982 150.401L90.3105 149.764C89.7532 149.701 89.2508 150.103 89.1883 150.66Z" fill="#1A237E"/>
<path d="M63.5426 137.414L31.9128 175.853C31.5564 176.286 31.6186 176.926 32.0517 177.282L36.4711 180.919C36.9041 181.275 37.5441 181.213 37.9004 180.78L69.5302 142.341C69.8865 141.908 69.8243 141.268 69.3913 140.912L64.9719 137.275C64.5388 136.919 63.8989 136.981 63.5426 137.414Z" fill="#1A237E"/>
<path d="M49.2918 112.344L1.81419 127.304C1.27931 127.473 0.982334 128.043 1.15088 128.578L2.87096 134.037C3.0395 134.571 3.60974 134.868 4.14461 134.7L51.6223 119.739C52.1571 119.571 52.4541 119.001 52.2856 118.466L50.5655 113.007C50.397 112.472 49.8267 112.175 49.2918 112.344Z" fill="#1A237E"/>
<path d="M1.80878 70.9031L0.272556 76.4164C0.122028 76.9566 0.43794 77.5166 0.978164 77.6671L48.9304 91.0285C49.4706 91.1791 50.0306 90.8631 50.1811 90.3229L51.7173 84.8096C51.8679 84.2694 51.552 83.7094 51.0117 83.5589L3.0595 70.1975C2.51928 70.0469 1.95931 70.3629 1.80878 70.9031Z" fill="#1A237E"/>
<path d="M33.8306 22.9154L29.5355 26.698C29.1146 27.0687 29.0739 27.7103 29.4446 28.1312L62.3444 65.4882C62.7151 65.909 63.3567 65.9497 63.7776 65.5791L68.0727 61.7964C68.4935 61.4258 68.5342 60.7841 68.1636 60.3633L35.2637 23.0063C34.8931 22.5854 34.2514 22.5447 33.8306 22.9154Z" fill="#1A237E"/>
<path d="M86.8438 0.147151L81.1806 0.974334C80.6256 1.05539 80.2415 1.57094 80.3225 2.12586L87.517 51.3822C87.5981 51.9371 88.1137 52.3212 88.6686 52.2402L94.3318 51.413C94.8867 51.3319 95.2708 50.8164 95.1898 50.2615L87.9953 1.00516C87.9142 0.450241 87.3987 0.0660982 86.8438 0.147151Z" fill="#1A237E"/>
<path d="M137.131 8.1136L116.29 53.32C116.056 53.8293 116.278 54.4325 116.787 54.6673L121.985 57.0634C122.494 57.2982 123.097 57.0757 123.332 56.5664L144.173 11.36C144.407 10.8507 144.185 10.2475 143.676 10.0127L138.478 7.61658C137.969 7.38179 137.366 7.60431 137.131 8.1136Z" fill="#1A237E"/>
</svg>
