<svg width="348" height="508" viewBox="0 0 348 508" fill="none" xmlns="http://www.w3.org/2000/svg">
<circle cx="94.5" cy="253.5" r="253.5" fill="#F2F2F2"/>
<circle cx="203.525" cy="481.525" r="25.5247" fill="#B4DFC3"/>
<path d="M194.548 468.521C193.389 468.521 192.445 469.487 192.445 470.646V493.366C192.445 494.525 193.389 495.491 194.548 495.491H211.319C212.478 495.491 213.422 494.525 213.422 493.366V492.494C214.418 492.494 215.22 491.692 215.22 490.696V488.898C215.22 487.902 214.418 487.1 213.422 487.1V485.303C214.418 485.303 215.22 484.501 215.22 483.505V481.707C215.22 480.71 214.418 479.909 213.422 479.909V478.111C214.418 478.111 215.22 477.309 215.22 476.313V474.515C215.22 473.519 214.418 472.717 213.422 472.717V470.646C213.422 469.487 212.478 468.521 211.319 468.521H194.548ZM194.548 469.93H211.319C211.709 469.93 212.013 470.231 212.013 470.646V493.366L211.319 494.082H194.548C194.157 494.082 193.854 493.781 193.854 493.366V470.646C193.854 470.231 194.157 469.93 194.548 469.93Z" fill="#1A237E"/>
<path d="M202.936 480.359C204.756 480.359 206.232 478.883 206.232 477.062C206.232 475.242 204.756 473.766 202.936 473.766C201.115 473.766 199.64 475.242 199.64 477.062C199.64 478.883 201.115 480.359 202.936 480.359Z" fill="#1A237E"/>
<path d="M208.929 487.446C208.929 490.533 206.246 490.241 202.936 490.241C199.626 490.241 196.942 490.533 196.942 487.446C196.942 484.36 199.626 481.857 202.936 481.857C206.246 481.857 208.929 484.36 208.929 487.446Z" fill="#1A237E"/>
</svg>
